<?xml version="1.0" encoding="UTF-8" standalone="no"?>
<svg width="165px" height="80px" viewBox="0 0 165 80" version="1.1" xmlns="http://www.w3.org/2000/svg" xmlns:xlink="http://www.w3.org/1999/xlink">
    <!-- Generator: Sketch 48.1 (47250) - http://www.bohemiancoding.com/sketch -->
    <title>image/hospital</title>
    <desc>Created with Sketch.</desc>
    <defs>
        <linearGradient x1="0%" y1="50%" x2="104.263731%" y2="50%" id="linearGradient-1">
            <stop stop-color="#23C3F3" offset="0%"></stop>
            <stop stop-color="#5296FC" offset="100%"></stop>
        </linearGradient>
        <rect id="path-2" x="0" y="0" width="165" height="80" rx="14"></rect>
        <linearGradient x1="50%" y1="0%" x2="50%" y2="100%" id="linearGradient-4">
            <stop stop-color="#FFFFFF" offset="0%"></stop>
            <stop stop-color="#FFFFFF" stop-opacity="0" offset="100%"></stop>
        </linearGradient>
        <linearGradient x1="0%" y1="50%" x2="50%" y2="50%" id="linearGradient-5">
            <stop stop-color="#FFFFFF" offset="0%"></stop>
            <stop stop-color="#D9F2FF" offset="100%"></stop>
        </linearGradient>
    </defs>
    <g id="Symbols" stroke="none" stroke-width="1" fill="none" fill-rule="evenodd">
        <g id="image/hospital">
            <g>
                <g id="Rectangle-2-+-Rectangle-2-Copy-Mask">
                    <mask id="mask-3" fill="white">
                        <use xlink:href="#path-2"></use>
                    </mask>
                    <use id="Mask" fill="url(#linearGradient-1)" xlink:href="#path-2"></use>
                    <rect id="Rectangle-2" fill="url(#linearGradient-4)" style="mix-blend-mode: soft-light;" opacity="0.200000003" mask="url(#mask-3)" transform="translate(145.635669, 27.635669) rotate(-315.000000) translate(-145.635669, -27.635669) " x="139.635669" y="-13.9323503" width="12" height="83.136039" rx="6"></rect>
                    <rect id="Rectangle-2-Copy-3" fill="url(#linearGradient-4)" style="mix-blend-mode: soft-light;" opacity="0.200000003" mask="url(#mask-3)" transform="translate(20.635669, 47.635669) rotate(-315.000000) translate(-20.635669, -47.635669) " x="14.6356691" y="6.06764966" width="12" height="83.136039" rx="6"></rect>
                    <rect id="Rectangle-2-Copy" fill="url(#linearGradient-4)" style="mix-blend-mode: soft-light;" opacity="0.200000003" mask="url(#mask-3)" transform="translate(69.892659, 80.892659) rotate(-315.000000) translate(-69.892659, -80.892659) " x="54.8926586" y="-8.60734137" width="30" height="179" rx="15"></rect>
                    <rect id="Rectangle-2-Copy-2" fill="url(#linearGradient-4)" style="mix-blend-mode: soft-light;" opacity="0.200000003" mask="url(#mask-3)" transform="translate(54.749630, 13.749630) rotate(-315.000000) translate(-54.749630, -13.749630) " x="39.7496302" y="-37.3643309" width="30" height="102.227922" rx="15"></rect>
                    <path d="M48,55.7272727 L48,52.0909091 L58.1818182,52.0909091 C59.1859723,52.0909091 60,51.2768814 60,50.2727273 C60,49.2685732 59.1859723,48.4545455 58.1818182,48.4545455 L48,48.4545455 L48,46.6666085 C48,44.6415965 49.6415965,43 51.6666085,43 L60.3333915,43 C62.3584035,43 64,44.6415965 64,46.6666085 L64,60.9833653 C64,62.0971219 63.0971219,63 61.9833653,63 L50.0166347,63 C48.9028781,63 48,62.0971219 48,60.9833653 L48,59.3636364 L58.1818182,59.3636364 C59.1859723,59.3636364 60,58.5496086 60,57.5454545 C60,56.5413005 59.1859723,55.7272727 58.1818182,55.7272727 L48,55.7272727 Z" id="Combined-Shape" fill="url(#linearGradient-5)" opacity="0.5" mask="url(#mask-3)"></path>
                    <circle id="Oval" fill="url(#linearGradient-5)" mask="url(#mask-3)" cx="66.5" cy="18.5" r="3.5"></circle>
                    <circle id="Oval-Copy" fill="url(#linearGradient-5)" mask="url(#mask-3)" cx="12" cy="38" r="2"></circle>
                    <path d="M39.2895739,18.2333042 L39.2895739,21.9841337 L49.3333915,21.9841337 C51.3584035,21.9841337 53,23.6257302 53,25.6507422 L53,63.9668005 C53,65.0805571 52.0971219,65.9834352 50.9833653,65.9834352 L23.0166347,65.9834352 C21.9028781,65.9834352 21,65.0805571 21,63.9668005 L21,25.6507422 C21,23.6257302 22.6415965,21.9841337 24.6666085,21.9841337 L35.6229655,21.9841337 L35.6229655,18.2333042 L32.8895739,18.2333042 C31.877068,18.2333042 31.0562697,17.412506 31.0562697,16.4 C31.0562697,15.387494 31.877068,14.5666958 32.8895739,14.5666958 L35.6229655,14.5666958 L35.6229655,11.8333042 C35.6229655,10.8207983 36.4437638,10 37.4562697,10 C38.4687757,10 39.2895739,10.8207983 39.2895739,11.8333042 L39.2895739,14.5666958 L42.0229655,14.5666958 C43.0354715,14.5666958 43.8562697,15.387494 43.8562697,16.4 C43.8562697,17.412506 43.0354715,18.2333042 42.0229655,18.2333042 L39.2895739,18.2333042 Z" id="Combined-Shape" fill="url(#linearGradient-5)" fill-rule="nonzero" mask="url(#mask-3)"></path>
                    <rect id="Rectangle-10" fill="url(#linearGradient-1)" mask="url(#mask-3)" x="26" y="27" width="5" height="5" rx="0.916652115"></rect>
                    <rect id="Rectangle-10-Copy-3" fill="url(#linearGradient-1)" mask="url(#mask-3)" x="26" y="35" width="5" height="5" rx="0.916652115"></rect>
                    <rect id="Rectangle-10-Copy" fill="url(#linearGradient-1)" mask="url(#mask-3)" x="35" y="27" width="5" height="5" rx="0.916652115"></rect>
                    <rect id="Rectangle-10-Copy-4" fill="url(#linearGradient-1)" mask="url(#mask-3)" x="35" y="35" width="5" height="5" rx="0.916652115"></rect>
                    <rect id="Rectangle-10-Copy-2" fill="url(#linearGradient-1)" mask="url(#mask-3)" x="44" y="27" width="5" height="5" rx="0.916652115"></rect>
                    <rect id="Rectangle-10-Copy-5" fill="url(#linearGradient-1)" mask="url(#mask-3)" x="44" y="35" width="5" height="5" rx="0.916652115"></rect>
                </g>
                <text id="医院介绍" font-family="PingFangSC-Medium, PingFang SC" font-size="18" font-weight="400" letter-spacing="-0.787499905" fill="#FFFFFF">
                    <tspan x="81" y="47">医院介绍</tspan>
                </text>
                <path d="M37,50 L37,50 C41.418278,50 45,53.581722 45,58 L45,66 L29,66 L29,58 C29,53.581722 32.581722,50 37,50 Z" id="Rectangle-11" fill="url(#linearGradient-1)"></path>
            </g>
        </g>
    </g>
</svg>